<svg xmlns="http://www.w3.org/2000/svg" viewBox="0 0 64 64" fill="none">
  <defs>
    <linearGradient id="bg" x1="8" y1="6" x2="58" y2="58" gradientUnits="userSpaceOnUse">
      <stop offset="0" stop-color="#121827"/>
      <stop offset="1" stop-color="#070b14"/>
    </linearGradient>
    <linearGradient id="text" x1="20" y1="17" x2="45" y2="46" gradientUnits="userSpaceOnUse">
      <stop offset="0" stop-color="#f7f8fa"/>
      <stop offset="1" stop-color="#d8dbe0"/>
    </linearGradient>
  </defs>
  <rect x="4" y="4" width="56" height="56" rx="14" fill="url(#bg)"/>
  <rect x="4" y="4" width="56" height="56" rx="14" stroke="rgba(255,255,255,0.20)"/>
  <path d="M22 39.5V24.5H29.4C31.9 24.5 33.5 25.8 33.5 28.1C33.5 29.5 32.7 30.7 31.5 31.3C32.9 31.9 33.8 33.2 33.8 34.8C33.8 37.5 31.9 39.5 28.8 39.5H22ZM25.2 30.5H28.7C29.7 30.5 30.3 29.9 30.3 29.1C30.3 28.2 29.7 27.6 28.7 27.6H25.2V30.5ZM25.2 36.4H28.9C30 36.4 30.7 35.7 30.7 34.7C30.7 33.7 30 33 28.9 33H25.2V36.4Z" fill="url(#text)"/>
  <path d="M36.2 39.5V24.5H39.6L44.3 33.1V24.5H47.6V39.5H44.7L39.5 30.1V39.5H36.2Z" fill="url(#text)"/>
</svg>
